<?xml version="1.0" standalone="no"?>
<!DOCTYPE svg PUBLIC "-//W3C//DTD SVG 20010904//EN"
 "http://www.w3.org/TR/2001/REC-SVG-20010904/DTD/svg10.dtd">
<svg version="1.0" xmlns="http://www.w3.org/2000/svg"
 width="500.000000pt" height="500.000000pt" viewBox="0 0 500.000000 500.000000"
 preserveAspectRatio="xMidYMid meet">
<metadata>
Created by potrace 1.16, written by Peter Selinger 2001-2019
</metadata>
<g transform="translate(0.000000,500.000000) scale(0.100000,-0.100000)"
fill="#000000" stroke="none">
<path d="M2798 4554 c-143 -24 -294 -61 -389 -95 -108 -40 -144 -101 -210
-364 -39 -155 -77 -266 -98 -286 -9 -10 -41 -24 -71 -33 -31 -8 -66 -26 -77
-38 -47 -50 -86 -150 -163 -415 -17 -61 -29 -80 -78 -130 -168 -172 -179 -212
-116 -464 48 -195 49 -264 6 -386 -18 -51 -37 -125 -42 -165 -16 -126 -40
-180 -124 -283 -78 -95 -89 -128 -83 -254 2 -58 12 -155 22 -216 14 -88 15
-119 6 -158 -24 -104 -88 -148 -216 -148 -40 0 -89 2 -107 6 -18 3 -94 16
-168 29 -186 33 -270 39 -373 26 -150 -19 -290 -77 -380 -160 -63 -58 -97
-119 -97 -175 0 -34 7 -46 57 -95 60 -58 171 -122 239 -139 21 -5 83 -21 137
-35 304 -79 857 -73 1332 15 182 34 303 66 700 191 635 198 746 222 1105 233
216 7 292 17 415 55 50 16 182 54 295 85 347 96 430 128 501 192 53 48 69 81
69 145 0 66 -26 124 -79 177 -53 53 -99 65 -231 58 -178 -10 -313 -40 -480
-107 -214 -87 -246 -83 -273 34 -12 51 -29 81 -99 176 -53 71 -111 166 -153
250 -37 74 -98 189 -135 255 -37 66 -73 145 -80 175 -7 30 -21 85 -31 122 -23
80 -24 141 -4 198 30 86 20 125 -56 205 -29 30 -57 85 -114 220 -42 99 -99
228 -127 288 l-51 107 23 25 c12 13 39 32 59 41 58 27 109 72 116 103 3 15 -2
59 -11 96 -24 94 -22 95 165 95 266 0 468 27 514 67 66 60 -77 181 -306 259
-40 14 -146 43 -237 65 -174 42 -185 47 -244 102 -44 42 -74 62 -101 69 -11 2
-82 -6 -157 -18z m-298 -246 c10 -17 40 -79 65 -137 72 -167 141 -244 159
-178 3 12 6 80 6 150 0 121 10 174 30 162 4 -3 8 -41 8 -84 -1 -112 25 -161
159 -301 58 -61 103 -110 100 -110 -3 0 -28 16 -57 35 -87 58 -100 45 -50 -51
17 -31 29 -61 28 -65 -5 -12 -40 22 -71 67 -15 22 -42 55 -61 73 -30 29 -36
31 -54 20 -11 -7 -30 -34 -43 -61 -21 -46 -39 -55 -39 -20 0 30 -70 132 -101
148 -24 12 -29 19 -23 37 12 35 9 46 -51 186 -53 124 -61 161 -35 161 6 0 19
-14 30 -32z m-255 -1209 c17 -9 44 -24 60 -32 56 -30 113 -87 234 -235 147
-181 222 -259 256 -268 47 -12 86 5 217 91 188 124 227 142 256 113 19 -19 14
-54 -17 -121 -29 -64 -64 -104 -141 -160 -58 -43 -61 -65 -14 -117 20 -22 34
-44 30 -47 -8 -8 -85 31 -239 121 -38 23 -56 28 -90 24 -72 -9 -178 -58 -297
-140 -92 -62 -125 -79 -164 -85 -66 -8 -57 4 53 75 133 85 162 112 159 141 -3
23 -13 28 -108 56 -124 37 -154 54 -182 109 -57 112 -85 144 -158 181 -38 19
-70 41 -70 48 0 7 20 33 45 57 61 59 57 75 -27 119 -37 20 -68 40 -68 44 0 4
19 17 43 28 52 24 175 23 222 -2z m1030 -1019 c13 -12 45 -54 70 -91 46 -69
84 -99 126 -99 22 0 22 8 4 54 -7 16 -5 17 13 7 28 -15 85 -83 113 -136 34
-64 17 -75 -52 -34 -147 87 -356 122 -577 98 -322 -34 -934 -163 -1042 -219
-30 -15 -75 -33 -100 -40 -43 -12 -111 -43 -196 -91 -23 -13 -48 -20 -57 -16
-23 9 -77 96 -77 124 0 30 15 29 61 -3 38 -26 92 -33 140 -19 41 12 370 180
459 234 47 29 148 83 225 121 224 112 378 141 708 136 149 -3 159 -4 182 -26z
m1385 -516 c81 -24 139 -68 140 -106 1 -58 -139 -137 -302 -169 -57 -12 -119
-24 -138 -28 -19 -4 -109 -33 -200 -63 -162 -55 -243 -72 -520 -107 -96 -12
-193 -14 -203 -4 -4 3 12 19 35 35 49 33 252 138 268 138 5 0 128 56 272 123
297 140 325 152 423 177 87 23 156 25 225 4z"/>
</g>
</svg>
