<svg width="354" height="223" viewBox="0 0 354 223" fill="none" xmlns="http://www.w3.org/2000/svg">
<mask id="path-1-inside-1" fill="white">
<path fill-rule="evenodd" clip-rule="evenodd" d="M177 216.352C274.754 216.352 354 167.92 354 108.176C354 48.4321 274.754 0 177 0C79.2456 0 0 48.4321 0 108.176C0 132.89 13.5608 155.669 36.383 173.884L35.0314 222.365L84.2993 200.347C111.26 210.497 143.011 216.352 177 216.352Z"/>
</mask>
<path d="M36.383 173.884L44.3799 174.107L44.491 170.12L41.3734 167.632L36.383 173.884ZM35.0314 222.365L27.0345 222.142L26.6799 234.86L38.2955 229.669L35.0314 222.365ZM84.2993 200.347L87.1179 192.86L84.0389 191.701L81.0352 193.043L84.2993 200.347ZM346 108.176C346 134.207 328.704 159.068 297.986 177.842C267.405 196.532 224.65 208.352 177 208.352V224.352C227.104 224.352 272.849 211.956 306.33 191.494C339.673 171.116 362 141.889 362 108.176H346ZM177 8C224.65 8 267.405 19.8204 297.986 38.5101C328.704 57.2837 346 82.1453 346 108.176H362C362 74.4628 339.673 45.2364 306.33 24.8579C272.849 4.39565 227.104 -8 177 -8V8ZM8 108.176C8 82.1453 25.2962 57.2837 56.014 38.5101C86.5945 19.8204 129.35 8 177 8V-8C126.896 -8 81.1511 4.39565 47.6702 24.8579C14.3266 45.2364 -8 74.4628 -8 108.176H8ZM41.3734 167.632C19.809 150.42 8 129.737 8 108.176H-8C-8 136.043 7.31263 160.918 31.3925 180.137L41.3734 167.632ZM43.0283 222.588L44.3799 174.107L28.3861 173.661L27.0345 222.142L43.0283 222.588ZM81.0352 193.043L31.7673 215.062L38.2955 229.669L87.5634 207.651L81.0352 193.043ZM177 208.352C143.906 208.352 113.116 202.648 87.1179 192.86L81.4807 207.834C109.404 218.346 142.116 224.352 177 224.352V208.352Z" fill="#C3D97B" mask="url(#path-1-inside-1)"/>
<path d="M28.2695 123.012C28.2695 122.035 28.3574 121.029 28.5332 119.994C28.709 118.959 28.8848 117.924 29.0605 116.889C29.2559 115.854 29.4121 114.818 29.5293 113.783C29.666 112.748 29.6855 111.732 29.5879 110.736L22.293 98.373C22.7227 97.9824 23.0645 97.7676 23.3184 97.7285C23.5723 97.6699 23.7188 97.6602 23.7578 97.6992C23.8945 97.8945 24.1191 98.2559 24.4316 98.7832C24.7637 99.3105 25.1348 99.9258 25.5449 100.629C25.9746 101.332 26.4238 102.074 26.8926 102.855C27.3613 103.637 27.8008 104.379 28.2109 105.082C28.6406 105.785 29.002 106.41 29.2949 106.957C29.6074 107.504 29.8223 107.885 29.9395 108.1L31.2871 97.2305L32.752 97.9629L29.5879 123.1L28.2695 123.012ZM33.9531 105.639C33.9531 105.189 33.9922 104.672 34.0703 104.086C34.1484 103.48 34.2754 102.875 34.4512 102.27C34.627 101.664 34.8418 101.068 35.0957 100.482C35.3691 99.8965 35.6914 99.3789 36.0625 98.9297C36.4336 98.4609 36.8633 98.0898 37.3516 97.8164C37.8398 97.5234 38.3867 97.377 38.9922 97.377C39.6172 97.377 40.1934 97.5918 40.7207 98.0215C41.2676 98.4512 41.7266 99.0078 42.0977 99.6914C42.4883 100.375 42.7812 101.137 42.9766 101.977C43.1719 102.816 43.25 103.637 43.2109 104.438C43.2109 105.609 42.9863 106.654 42.5371 107.572C42.0879 108.49 41.5117 109.232 40.8086 109.799C40.125 110.365 39.3828 110.746 38.582 110.941C37.8008 111.137 37.0586 111.088 36.3555 110.795C35.6719 110.482 35.0957 109.906 34.627 109.066C34.1777 108.227 33.9531 107.084 33.9531 105.639ZM35.0371 105.756C35.0957 106.947 35.3008 107.865 35.6523 108.51C36.0039 109.154 36.4238 109.584 36.9121 109.799C37.4199 109.994 37.9668 109.994 38.5527 109.799C39.1387 109.604 39.6855 109.262 40.1934 108.773C40.7012 108.266 41.1309 107.641 41.4824 106.898C41.8535 106.137 42.0586 105.287 42.0977 104.35C42.1367 103.646 42.0781 102.963 41.9219 102.299C41.7852 101.635 41.5801 101.049 41.3066 100.541C41.0527 100.014 40.7305 99.6035 40.3398 99.3105C39.9688 98.998 39.5391 98.8418 39.0508 98.8418C38.582 98.8418 38.1621 98.959 37.791 99.1934C37.4199 99.4277 37.0781 99.75 36.7656 100.16C36.4727 100.551 36.2188 101 36.0039 101.508C35.7891 102.016 35.6035 102.523 35.4473 103.031C35.3105 103.539 35.2031 104.037 35.125 104.525C35.0664 104.994 35.0371 105.404 35.0371 105.756ZM44.6758 99.6328C44.6758 99.5352 44.7344 99.4375 44.8516 99.3398C44.9883 99.2422 45.1445 99.1641 45.3203 99.1055C45.5156 99.0469 45.7012 99.0078 45.877 98.9883C46.0527 98.9688 46.1797 98.998 46.2578 99.0762C46.375 101.498 46.5996 103.432 46.9316 104.877C47.2832 106.303 47.6738 107.348 48.1035 108.012C48.5527 108.676 49.0312 109.018 49.5391 109.037C50.0469 109.037 50.5449 108.822 51.0332 108.393C51.5215 107.943 51.9707 107.338 52.3809 106.576C52.8105 105.814 53.1523 104.994 53.4062 104.115C53.6797 103.236 53.8457 102.357 53.9043 101.479C53.9629 100.6 53.8848 99.8184 53.6699 99.1348L55.4277 98.9297C55.4473 99.2227 55.4961 99.7109 55.5742 100.395C55.6719 101.059 55.7695 101.82 55.8672 102.68C55.9844 103.52 56.1113 104.398 56.248 105.316C56.3848 106.234 56.502 107.094 56.5996 107.895C56.6973 108.676 56.7852 109.35 56.8633 109.916C56.9414 110.463 56.9805 110.805 56.9805 110.941H55.7207L54.3438 105.873C54.0703 106.557 53.7383 107.211 53.3477 107.836C52.957 108.461 52.5273 109.008 52.0586 109.477C51.6094 109.945 51.1309 110.316 50.623 110.59C50.1152 110.844 49.6074 110.951 49.0996 110.912C48.6113 110.854 48.1328 110.619 47.6641 110.209C47.1953 109.799 46.7559 109.154 46.3457 108.275C45.9551 107.377 45.6133 106.225 45.3203 104.818C45.0273 103.412 44.8125 101.684 44.6758 99.6328ZM74.9102 110.619L69.1973 97.5234L69.959 96.7324L74.8223 107.631L77.0488 100.453L82.7031 108.188C82.8789 107.23 82.9863 106.273 83.0254 105.316C83.084 104.34 83.1035 103.373 83.084 102.416C83.084 101.439 83.0742 100.453 83.0547 99.457C83.0547 98.4609 83.084 97.4648 83.1426 96.4688L84.4023 96.9375C84.4023 98.4023 84.4023 99.6426 84.4023 100.658C84.4023 101.674 84.4023 102.533 84.4023 103.236C84.4023 103.92 84.3926 104.477 84.373 104.906C84.373 105.336 84.3633 105.707 84.3438 106.02C84.3438 106.332 84.3242 106.625 84.2852 106.898C84.2461 107.152 84.1973 107.445 84.1387 107.777C84.0801 108.09 84.0117 108.48 83.9336 108.949C83.8555 109.418 83.7578 110.033 83.6406 110.795C83.0352 110.326 82.4492 109.74 81.8828 109.037C81.3164 108.334 80.7793 107.631 80.2715 106.928C79.7832 106.225 79.3145 105.58 78.8652 104.994C78.416 104.389 78.0059 103.949 77.6348 103.676L74.9102 110.619ZM85.9551 108.48C85.9551 107.367 86.2578 106.557 86.8633 106.049C87.4883 105.541 88.2988 105.287 89.2949 105.287C89.6855 105.287 90.0469 105.297 90.3789 105.316C90.7305 105.336 91.0625 105.385 91.375 105.463C91.6875 105.541 91.9902 105.658 92.2832 105.814C92.5957 105.971 92.918 106.195 93.25 106.488C93.25 106.43 93.25 106.312 93.25 106.137C93.2695 105.941 93.2793 105.736 93.2793 105.521C93.2793 105.307 93.2793 105.111 93.2793 104.936C93.2793 104.74 93.2793 104.604 93.2793 104.525C93.2598 104.174 93.25 103.725 93.25 103.178C93.25 102.611 93.2012 102.035 93.1035 101.449C93.0254 100.863 92.8496 100.307 92.5762 99.7793C92.3223 99.252 91.9023 98.8516 91.3164 98.5781C90.9062 98.5781 90.5254 98.6465 90.1738 98.7832C89.8223 98.9199 89.4707 99.0664 89.1191 99.2227C88.7676 99.3789 88.416 99.5254 88.0645 99.6621C87.7129 99.7793 87.332 99.8379 86.9219 99.8379C86.9219 99.3496 87.0684 98.9492 87.3613 98.6367C87.6738 98.3047 88.0449 98.0508 88.4746 97.875C88.9043 97.6992 89.3535 97.582 89.8223 97.5234C90.291 97.4648 90.7012 97.4355 91.0527 97.4355C91.4043 97.4941 91.7266 97.5625 92.0195 97.6406C92.332 97.7188 92.6152 97.875 92.8691 98.1094C93.1426 98.3438 93.3867 98.7051 93.6016 99.1934C93.8359 99.6621 94.0312 100.326 94.1875 101.186C94.3633 102.045 94.5098 103.139 94.627 104.467C94.7637 105.775 94.8711 107.387 94.9492 109.301C94.9883 109.555 94.9004 109.779 94.6855 109.975C94.4902 110.15 94.2168 110.307 93.8652 110.443C93.5137 110.561 93.1133 110.668 92.6641 110.766C92.2344 110.844 91.7949 110.902 91.3457 110.941C90.8965 110.98 90.4668 111.01 90.0566 111.029C89.6465 111.049 89.3047 111.059 89.0312 111.059C88.6797 111.059 88.3184 111 87.9473 110.883C87.5957 110.766 87.2637 110.6 86.9512 110.385C86.6582 110.15 86.4141 109.877 86.2188 109.564C86.043 109.232 85.9551 108.871 85.9551 108.48ZM89.7637 106.43C88.7871 106.703 88.1035 107.035 87.7129 107.426C87.3223 107.797 87.1465 108.158 87.1855 108.51C87.2441 108.861 87.4785 109.184 87.8887 109.477C88.2988 109.75 88.7969 109.936 89.3828 110.033C89.9688 110.111 90.6035 110.062 91.2871 109.887C91.9707 109.691 92.625 109.32 93.25 108.773C93.0156 108.207 92.7812 107.777 92.5469 107.484C92.3125 107.172 92.0586 106.938 91.7852 106.781C91.5117 106.625 91.209 106.527 90.877 106.488C90.5449 106.449 90.1738 106.43 89.7637 106.43ZM96.5312 110.854C96.4922 110.541 96.4531 110.092 96.4141 109.506C96.3945 108.9 96.3652 108.227 96.3262 107.484C96.3066 106.723 96.2871 105.932 96.2676 105.111C96.248 104.291 96.2285 103.51 96.209 102.768C96.1895 102.025 96.1602 101.361 96.1211 100.775C96.1016 100.17 96.0625 99.7109 96.0039 99.3984C96.0039 99.3789 95.9941 99.3301 95.9746 99.252C95.9746 99.1738 95.9648 99.0859 95.9453 98.9883C95.9453 98.8906 95.9453 98.8125 95.9453 98.7539C95.9453 98.6758 95.9453 98.6172 95.9453 98.5781C96.2383 98.3438 96.4824 98.2656 96.6777 98.3438C96.8926 98.4219 97.0684 98.5977 97.2051 98.8711C97.3418 99.125 97.4395 99.4473 97.498 99.8379C97.5566 100.229 97.5957 100.619 97.6152 101.01C97.6543 101.4 97.6738 101.762 97.6738 102.094C97.6738 102.406 97.6738 102.631 97.6738 102.768C97.7129 102.436 97.7715 102.045 97.8496 101.596C97.9277 101.146 98.0449 100.688 98.2012 100.219C98.3574 99.75 98.543 99.291 98.7578 98.8418C98.9922 98.373 99.2754 97.9629 99.6074 97.6113C99.9395 97.2598 100.311 96.9863 100.721 96.791C101.15 96.5957 101.639 96.5176 102.186 96.5566C103.045 96.5957 103.748 96.8301 104.295 97.2598C104.861 97.6895 105.301 98.2656 105.613 98.9883C105.945 99.7109 106.18 100.541 106.316 101.479C106.473 102.416 106.57 103.412 106.609 104.467C106.668 105.521 106.688 106.596 106.668 107.689C106.648 108.764 106.639 109.799 106.639 110.795C106.463 110.834 106.287 110.902 106.111 111C105.936 111.078 105.789 111.107 105.672 111.088C105.555 111.088 105.467 111.01 105.408 110.854C105.369 110.678 105.389 110.346 105.467 109.857C105.486 109.506 105.516 108.969 105.555 108.246C105.613 107.504 105.633 106.684 105.613 105.785C105.613 104.887 105.564 103.959 105.467 103.002C105.369 102.045 105.184 101.176 104.91 100.395C104.656 99.5938 104.285 98.9492 103.797 98.4609C103.309 97.9531 102.674 97.6992 101.893 97.6992C101.092 98.0312 100.418 98.6562 99.8711 99.5742C99.3438 100.492 98.9141 101.566 98.582 102.797C98.2695 104.027 98.0352 105.365 97.8789 106.811C97.7422 108.236 97.6641 109.633 97.6445 111C97.6055 110.98 97.5273 110.971 97.4102 110.971C97.3125 110.971 97.1953 110.971 97.0586 110.971C96.9414 110.951 96.8242 110.932 96.707 110.912C96.6094 110.893 96.5508 110.873 96.5312 110.854ZM111.561 100.365C111.385 100.307 111.141 100.287 110.828 100.307C110.535 100.307 110.213 100.326 109.861 100.365C109.529 100.385 109.207 100.414 108.895 100.453C108.582 100.492 108.318 100.512 108.104 100.512C108.006 100.512 107.938 100.375 107.898 100.102C107.879 99.8086 107.84 99.418 107.781 98.9297L111.912 98.6367C111.971 97.9531 112.01 97.4648 112.029 97.1719C112.049 96.8789 112.049 96.6348 112.029 96.4395C112.029 96.2246 112.02 95.9902 112 95.7363C112 95.4629 112 95.043 112 94.4766C112.508 94.3984 112.889 94.3789 113.143 94.418C113.416 94.4375 113.602 94.5059 113.699 94.623C113.797 94.7402 113.836 94.916 113.816 95.1504C113.816 95.3652 113.787 95.6387 113.729 95.9707C113.689 96.3027 113.65 96.7031 113.611 97.1719C113.592 97.6406 113.611 98.168 113.67 98.7539L117.186 98.6367V100.072C117.029 100.072 116.785 100.082 116.453 100.102C116.121 100.121 115.76 100.141 115.369 100.16C114.998 100.18 114.646 100.199 114.314 100.219C114.002 100.238 113.768 100.277 113.611 100.336C113.455 101.039 113.289 101.791 113.113 102.592C112.938 103.393 112.82 104.184 112.762 104.965C112.703 105.746 112.723 106.479 112.82 107.162C112.918 107.826 113.162 108.383 113.553 108.832C113.943 109.262 114.5 109.564 115.223 109.74C115.945 109.896 116.902 109.838 118.094 109.564C118.055 109.857 117.938 110.102 117.742 110.297C117.566 110.473 117.352 110.619 117.098 110.736C116.863 110.834 116.609 110.912 116.336 110.971C116.062 111.01 115.818 111.029 115.604 111.029C114.607 111.029 113.816 110.854 113.23 110.502C112.645 110.131 112.205 109.652 111.912 109.066C111.619 108.48 111.434 107.816 111.355 107.074C111.277 106.312 111.248 105.541 111.268 104.76C111.307 103.979 111.365 103.207 111.443 102.445C111.521 101.684 111.561 100.99 111.561 100.365ZM133.943 100.365C133.768 100.307 133.523 100.287 133.211 100.307C132.918 100.307 132.596 100.326 132.244 100.365C131.912 100.385 131.59 100.414 131.277 100.453C130.965 100.492 130.701 100.512 130.486 100.512C130.389 100.512 130.32 100.375 130.281 100.102C130.262 99.8086 130.223 99.418 130.164 98.9297L134.295 98.6367C134.354 97.9531 134.393 97.4648 134.412 97.1719C134.432 96.8789 134.432 96.6348 134.412 96.4395C134.412 96.2246 134.402 95.9902 134.383 95.7363C134.383 95.4629 134.383 95.043 134.383 94.4766C134.891 94.3984 135.271 94.3789 135.525 94.418C135.799 94.4375 135.984 94.5059 136.082 94.623C136.18 94.7402 136.219 94.916 136.199 95.1504C136.199 95.3652 136.17 95.6387 136.111 95.9707C136.072 96.3027 136.033 96.7031 135.994 97.1719C135.975 97.6406 135.994 98.168 136.053 98.7539L139.568 98.6367V100.072C139.412 100.072 139.168 100.082 138.836 100.102C138.504 100.121 138.143 100.141 137.752 100.16C137.381 100.18 137.029 100.199 136.697 100.219C136.385 100.238 136.15 100.277 135.994 100.336C135.838 101.039 135.672 101.791 135.496 102.592C135.32 103.393 135.203 104.184 135.145 104.965C135.086 105.746 135.105 106.479 135.203 107.162C135.301 107.826 135.545 108.383 135.936 108.832C136.326 109.262 136.883 109.564 137.605 109.74C138.328 109.896 139.285 109.838 140.477 109.564C140.438 109.857 140.32 110.102 140.125 110.297C139.949 110.473 139.734 110.619 139.48 110.736C139.246 110.834 138.992 110.912 138.719 110.971C138.445 111.01 138.201 111.029 137.986 111.029C136.99 111.029 136.199 110.854 135.613 110.502C135.027 110.131 134.588 109.652 134.295 109.066C134.002 108.48 133.816 107.816 133.738 107.074C133.66 106.312 133.631 105.541 133.65 104.76C133.689 103.979 133.748 103.207 133.826 102.445C133.904 101.684 133.943 100.99 133.943 100.365ZM141.619 105.639C141.619 105.189 141.658 104.672 141.736 104.086C141.814 103.48 141.941 102.875 142.117 102.27C142.293 101.664 142.508 101.068 142.762 100.482C143.035 99.8965 143.357 99.3789 143.729 98.9297C144.1 98.4609 144.529 98.0898 145.018 97.8164C145.506 97.5234 146.053 97.377 146.658 97.377C147.283 97.377 147.859 97.5918 148.387 98.0215C148.934 98.4512 149.393 99.0078 149.764 99.6914C150.154 100.375 150.447 101.137 150.643 101.977C150.838 102.816 150.916 103.637 150.877 104.438C150.877 105.609 150.652 106.654 150.203 107.572C149.754 108.49 149.178 109.232 148.475 109.799C147.791 110.365 147.049 110.746 146.248 110.941C145.467 111.137 144.725 111.088 144.021 110.795C143.338 110.482 142.762 109.906 142.293 109.066C141.844 108.227 141.619 107.084 141.619 105.639ZM142.703 105.756C142.762 106.947 142.967 107.865 143.318 108.51C143.67 109.154 144.09 109.584 144.578 109.799C145.086 109.994 145.633 109.994 146.219 109.799C146.805 109.604 147.352 109.262 147.859 108.773C148.367 108.266 148.797 107.641 149.148 106.898C149.52 106.137 149.725 105.287 149.764 104.35C149.803 103.646 149.744 102.963 149.588 102.299C149.451 101.635 149.246 101.049 148.973 100.541C148.719 100.014 148.396 99.6035 148.006 99.3105C147.635 98.998 147.205 98.8418 146.717 98.8418C146.248 98.8418 145.828 98.959 145.457 99.1934C145.086 99.4277 144.744 99.75 144.432 100.16C144.139 100.551 143.885 101 143.67 101.508C143.455 102.016 143.27 102.523 143.113 103.031C142.977 103.539 142.869 104.037 142.791 104.525C142.732 104.994 142.703 105.404 142.703 105.756ZM163.123 106.752C163.123 106.225 163.211 105.648 163.387 105.023C163.562 104.379 163.816 103.793 164.148 103.266C164.48 102.719 164.881 102.27 165.35 101.918C165.818 101.566 166.365 101.391 166.99 101.391C167.459 101.391 167.869 101.439 168.221 101.537C168.592 101.615 168.934 101.762 169.246 101.977C169.578 102.172 169.881 102.416 170.154 102.709C170.447 102.982 170.75 103.305 171.062 103.676L170.887 88.6465C171.414 88.4512 171.736 88.373 171.854 88.4121C171.99 88.4512 172.059 88.6172 172.059 88.9102C172.059 88.9492 172.049 89.0078 172.029 89.0859C172.029 89.1641 172.029 89.2129 172.029 89.2324C172.01 89.6035 171.99 90.1309 171.971 90.8145C171.971 91.498 171.971 92.2891 171.971 93.1875C171.99 94.0859 172.01 95.0625 172.029 96.1172C172.049 97.1523 172.068 98.207 172.088 99.2812C172.107 100.336 172.127 101.391 172.146 102.445C172.186 103.48 172.205 104.447 172.205 105.346C172.225 106.244 172.225 107.045 172.205 107.748C172.205 108.432 172.195 108.949 172.176 109.301C171.961 109.75 171.658 110.092 171.268 110.326C170.896 110.561 170.486 110.736 170.037 110.854C169.607 110.951 169.158 111.01 168.689 111.029C168.221 111.049 167.781 111.059 167.371 111.059C166.062 111.059 165.027 110.678 164.266 109.916C163.504 109.135 163.123 108.08 163.123 106.752ZM164.295 105.961C164.295 106.449 164.334 106.938 164.412 107.426C164.49 107.895 164.627 108.314 164.822 108.686C165.018 109.057 165.291 109.359 165.643 109.594C165.994 109.809 166.443 109.916 166.99 109.916C167.322 109.916 167.723 109.916 168.191 109.916C168.66 109.916 169.109 109.867 169.539 109.77C169.969 109.652 170.33 109.477 170.623 109.242C170.916 109.008 171.062 108.676 171.062 108.246C171.062 107.738 170.984 107.162 170.828 106.518C170.691 105.854 170.467 105.229 170.154 104.643C169.861 104.037 169.48 103.529 169.012 103.119C168.562 102.689 168.025 102.475 167.4 102.475C166.99 102.475 166.6 102.582 166.229 102.797C165.857 103.012 165.525 103.285 165.232 103.617C164.959 103.949 164.734 104.32 164.559 104.73C164.383 105.141 164.295 105.551 164.295 105.961ZM174.783 99.6328C175.018 99.6328 175.213 99.623 175.369 99.6035C175.545 99.584 175.691 99.6816 175.809 99.8965C175.867 100.775 175.936 101.674 176.014 102.592C176.092 103.49 176.17 104.398 176.248 105.316C176.326 106.234 176.375 107.162 176.395 108.1C176.434 109.018 176.443 109.916 176.424 110.795C176.424 110.912 176.395 110.98 176.336 111C176.277 111.039 176.189 111.049 176.072 111.029C175.975 111.029 175.848 111.02 175.691 111C175.555 111 175.398 111.02 175.223 111.059L174.783 99.6328ZM173.084 94.3887C173.084 94.252 173.094 94.1055 173.113 93.9492C173.133 93.7734 173.172 93.6172 173.23 93.4805C173.309 93.3438 173.396 93.2266 173.494 93.1289C173.611 93.0312 173.748 92.9824 173.904 92.9824C174.139 92.9824 174.373 92.9922 174.607 93.0117C174.842 93.0312 175.066 93.0801 175.281 93.1582C175.496 93.2168 175.672 93.3242 175.809 93.4805C175.945 93.6172 176.014 93.8223 176.014 94.0957C176.014 94.5645 175.838 94.9844 175.486 95.3555C175.135 95.707 174.705 95.8828 174.197 95.8828C173.807 95.8828 173.523 95.7363 173.348 95.4434C173.172 95.1309 173.084 94.7793 173.084 94.3887ZM174.783 94.5352C174.725 94.5352 174.695 94.584 174.695 94.6816C174.695 94.7793 174.725 94.8281 174.783 94.8281C174.861 94.8281 174.9 94.7793 174.9 94.6816C174.9 94.584 174.861 94.5352 174.783 94.5352ZM179.178 108.627C179.529 108.627 179.852 108.695 180.145 108.832C180.457 108.969 180.76 109.125 181.053 109.301C181.346 109.457 181.639 109.604 181.932 109.74C182.244 109.857 182.576 109.916 182.928 109.916C183.338 109.916 183.758 109.848 184.188 109.711C184.637 109.555 185.047 109.35 185.418 109.096C185.789 108.822 186.092 108.5 186.326 108.129C186.561 107.738 186.678 107.318 186.678 106.869C186.697 106.732 186.697 106.566 186.678 106.371C186.678 106.176 186.619 105.98 186.502 105.785C186.385 105.57 186.189 105.375 185.916 105.199C185.643 105.004 185.242 104.857 184.715 104.76C184.207 104.662 183.562 104.613 182.781 104.613C182 104.594 181.033 104.662 179.881 104.818C179.588 104.818 179.305 104.74 179.031 104.584C178.758 104.408 178.514 104.203 178.299 103.969C178.084 103.715 177.908 103.451 177.771 103.178C177.635 102.885 177.566 102.611 177.566 102.357C177.566 101.596 177.723 100.98 178.035 100.512C178.367 100.023 178.787 99.6426 179.295 99.3691C179.803 99.0762 180.369 98.8711 180.994 98.7539C181.619 98.6367 182.254 98.5781 182.898 98.5781C183.191 98.5781 183.523 98.5977 183.895 98.6367C184.285 98.6562 184.637 98.7344 184.949 98.8711C185.281 98.9883 185.555 99.1836 185.77 99.457C186.004 99.7305 186.121 100.111 186.121 100.6C186.082 100.932 186.023 101.137 185.945 101.215C185.887 101.273 185.789 101.254 185.652 101.156C185.535 101.039 185.389 100.883 185.213 100.688C185.037 100.492 184.822 100.307 184.568 100.131C184.334 99.9355 184.041 99.7891 183.689 99.6914C183.357 99.5938 182.977 99.5938 182.547 99.6914C182.098 99.6914 181.648 99.7402 181.199 99.8379C180.75 99.916 180.34 100.062 179.969 100.277C179.617 100.492 179.324 100.785 179.09 101.156C178.875 101.527 178.768 101.996 178.768 102.562C178.768 102.855 178.895 103.061 179.148 103.178C179.422 103.275 179.773 103.324 180.203 103.324C180.652 103.324 181.15 103.314 181.697 103.295C182.264 103.256 182.84 103.236 183.426 103.236C184.012 103.236 184.578 103.285 185.125 103.383C185.672 103.461 186.15 103.637 186.561 103.91C186.99 104.164 187.322 104.535 187.557 105.023C187.791 105.512 187.879 106.146 187.82 106.928C187.82 107.494 187.654 108.031 187.322 108.539C187.01 109.047 186.6 109.496 186.092 109.887C185.604 110.258 185.057 110.551 184.451 110.766C183.846 110.98 183.26 111.059 182.693 111C182.459 110.98 182.137 110.922 181.727 110.824C181.336 110.707 180.945 110.551 180.555 110.355C180.184 110.16 179.861 109.926 179.588 109.652C179.314 109.359 179.178 109.018 179.178 108.627ZM189.168 105.99C189.168 105.268 189.285 104.467 189.52 103.588C189.754 102.709 190.096 101.898 190.545 101.156C190.994 100.395 191.551 99.7598 192.215 99.252C192.879 98.7441 193.65 98.4902 194.529 98.4902C194.979 98.4316 195.34 98.4805 195.613 98.6367C195.887 98.7734 196.092 98.998 196.229 99.3105C196.385 99.623 196.482 99.9844 196.521 100.395C196.58 100.785 196.609 101.195 196.609 101.625C196.629 102.035 196.629 102.426 196.609 102.797C196.609 103.148 196.629 103.441 196.668 103.676H195.936C195.916 103.559 195.877 103.285 195.818 102.855C195.779 102.406 195.701 101.947 195.584 101.479C195.467 101.01 195.301 100.59 195.086 100.219C194.891 99.8477 194.607 99.6621 194.236 99.6621C193.689 99.6621 193.172 99.877 192.684 100.307C192.215 100.736 191.805 101.254 191.453 101.859C191.102 102.465 190.818 103.09 190.604 103.734C190.389 104.379 190.281 104.916 190.281 105.346C190.301 105.834 190.369 106.371 190.486 106.957C190.604 107.523 190.789 108.041 191.043 108.51C191.316 108.979 191.668 109.359 192.098 109.652C192.527 109.945 193.055 110.033 193.68 109.916C194.148 109.916 194.598 109.818 195.027 109.623C195.457 109.428 195.877 109.223 196.287 109.008C196.697 108.793 197.107 108.588 197.518 108.393C197.947 108.197 198.396 108.1 198.865 108.1C198.865 108.607 198.68 109.057 198.309 109.447C197.938 109.818 197.479 110.121 196.932 110.355C196.404 110.59 195.838 110.766 195.232 110.883C194.646 111 194.148 111.059 193.738 111.059C193.074 111.059 192.459 110.922 191.893 110.648C191.346 110.375 190.867 110.014 190.457 109.564C190.047 109.096 189.725 108.559 189.49 107.953C189.275 107.328 189.168 106.674 189.168 105.99ZM200.301 105.639C200.301 105.189 200.34 104.672 200.418 104.086C200.496 103.48 200.623 102.875 200.799 102.27C200.975 101.664 201.189 101.068 201.443 100.482C201.717 99.8965 202.039 99.3789 202.41 98.9297C202.781 98.4609 203.211 98.0898 203.699 97.8164C204.188 97.5234 204.734 97.377 205.34 97.377C205.965 97.377 206.541 97.5918 207.068 98.0215C207.615 98.4512 208.074 99.0078 208.445 99.6914C208.836 100.375 209.129 101.137 209.324 101.977C209.52 102.816 209.598 103.637 209.559 104.438C209.559 105.609 209.334 106.654 208.885 107.572C208.436 108.49 207.859 109.232 207.156 109.799C206.473 110.365 205.73 110.746 204.93 110.941C204.148 111.137 203.406 111.088 202.703 110.795C202.02 110.482 201.443 109.906 200.975 109.066C200.525 108.227 200.301 107.084 200.301 105.639ZM201.385 105.756C201.443 106.947 201.648 107.865 202 108.51C202.352 109.154 202.771 109.584 203.26 109.799C203.768 109.994 204.314 109.994 204.9 109.799C205.486 109.604 206.033 109.262 206.541 108.773C207.049 108.266 207.479 107.641 207.83 106.898C208.201 106.137 208.406 105.287 208.445 104.35C208.484 103.646 208.426 102.963 208.27 102.299C208.133 101.635 207.928 101.049 207.654 100.541C207.4 100.014 207.078 99.6035 206.688 99.3105C206.316 98.998 205.887 98.8418 205.398 98.8418C204.93 98.8418 204.51 98.959 204.139 99.1934C203.768 99.4277 203.426 99.75 203.113 100.16C202.82 100.551 202.566 101 202.352 101.508C202.137 102.016 201.951 102.523 201.795 103.031C201.658 103.539 201.551 104.037 201.473 104.525C201.414 104.994 201.385 105.404 201.385 105.756ZM210.76 98.0508L211.668 97.1426L218.113 108.861L220.867 97.5234C221.004 97.582 221.15 97.6309 221.307 97.6699C221.463 97.6895 221.6 97.7188 221.717 97.7578C221.854 97.7773 221.961 97.8066 222.039 97.8457C222.117 97.8848 222.156 97.9531 222.156 98.0508C221.902 99.3008 221.658 100.473 221.424 101.566C221.209 102.66 220.975 103.725 220.721 104.76C220.467 105.795 220.193 106.84 219.9 107.895C219.607 108.93 219.266 110.014 218.875 111.146H217.732L210.76 98.0508ZM222.889 104.115C222.889 103.529 223.016 102.885 223.27 102.182C223.523 101.459 223.865 100.795 224.295 100.189C224.744 99.5645 225.242 99.0469 225.789 98.6367C226.355 98.207 226.941 97.9922 227.547 97.9922C227.879 97.9922 228.201 98.0605 228.514 98.1973C228.846 98.334 229.158 98.5195 229.451 98.7539C229.764 98.9688 230.037 99.2227 230.271 99.5156C230.525 99.7891 230.721 100.082 230.857 100.395C230.994 100.707 231.062 101.01 231.062 101.303C231.082 101.596 231.004 101.85 230.828 102.064L224.646 103.207C224.568 103.227 224.5 103.324 224.441 103.5C224.383 103.656 224.334 103.861 224.295 104.115C224.256 104.369 224.217 104.652 224.178 104.965C224.158 105.258 224.139 105.551 224.119 105.844C224.1 106.117 224.09 106.371 224.09 106.605C224.09 106.82 224.09 106.986 224.09 107.104C224.09 107.65 224.217 108.1 224.471 108.451C224.744 108.783 225.086 109.037 225.496 109.213C225.906 109.389 226.365 109.506 226.873 109.564C227.4 109.623 227.918 109.652 228.426 109.652C228.934 109.652 229.412 109.633 229.861 109.594C230.311 109.555 230.682 109.535 230.975 109.535C230.975 109.613 230.945 109.701 230.887 109.799C230.828 109.896 230.76 109.994 230.682 110.092C230.604 110.17 230.525 110.248 230.447 110.326C230.369 110.385 230.32 110.424 230.301 110.443C230.145 110.482 229.9 110.541 229.568 110.619C229.256 110.678 228.914 110.736 228.543 110.795C228.191 110.854 227.859 110.902 227.547 110.941C227.234 110.98 227.02 111 226.902 111C226.297 111.117 225.77 111.107 225.32 110.971C224.871 110.834 224.49 110.6 224.178 110.268C223.865 109.936 223.611 109.535 223.416 109.066C223.221 108.578 223.074 108.061 222.977 107.514C222.879 106.967 222.82 106.4 222.801 105.814C222.801 105.229 222.83 104.662 222.889 104.115ZM227.137 99.1055C226.961 99.1055 226.727 99.2031 226.434 99.3984C226.16 99.5742 225.896 99.8086 225.643 100.102C225.408 100.375 225.203 100.678 225.027 101.01C224.871 101.322 224.822 101.596 224.881 101.83C225.389 101.889 225.916 101.879 226.463 101.801C227.01 101.723 227.508 101.605 227.957 101.449C228.406 101.273 228.777 101.078 229.07 100.863C229.363 100.629 229.5 100.395 229.48 100.16C229.48 99.9258 229.295 99.7207 228.924 99.5449C228.572 99.3496 227.977 99.2031 227.137 99.1055ZM232.381 99.5742C232.615 99.4766 232.82 99.457 232.996 99.5156C233.172 99.5742 233.318 99.6816 233.436 99.8379C233.553 99.9941 233.641 100.18 233.699 100.395C233.758 100.59 233.807 100.785 233.846 100.98C234.1 100.551 234.461 100.209 234.93 99.9551C235.418 99.6816 235.936 99.5059 236.482 99.4277C237.029 99.3301 237.576 99.3105 238.123 99.3691C238.67 99.4082 239.129 99.5254 239.5 99.7207C239.891 99.8965 240.164 100.15 240.32 100.482C240.477 100.795 240.438 101.166 240.203 101.596C239.695 101.303 239.158 101.068 238.592 100.893C238.045 100.717 237.508 100.658 236.98 100.717C236.453 100.775 235.965 100.98 235.516 101.332C235.066 101.664 234.695 102.201 234.402 102.943C234.109 103.686 233.924 104.672 233.846 105.902C233.787 107.113 233.875 108.627 234.109 110.443H232.996C232.996 110.443 232.977 110.287 232.938 109.975C232.918 109.643 232.889 109.213 232.85 108.686C232.83 108.158 232.791 107.572 232.732 106.928C232.693 106.283 232.654 105.629 232.615 104.965C232.576 104.301 232.537 103.666 232.498 103.061C232.479 102.436 232.449 101.898 232.41 101.449C232.41 101.391 232.4 101.273 232.381 101.098C232.381 100.922 232.381 100.736 232.381 100.541C232.381 100.326 232.381 100.131 232.381 99.9551C232.381 99.7793 232.381 99.6523 232.381 99.5742ZM252.771 108.48C252.771 107.367 253.074 106.557 253.68 106.049C254.305 105.541 255.115 105.287 256.111 105.287C256.502 105.287 256.863 105.297 257.195 105.316C257.547 105.336 257.879 105.385 258.191 105.463C258.504 105.541 258.807 105.658 259.1 105.814C259.412 105.971 259.734 106.195 260.066 106.488C260.066 106.43 260.066 106.312 260.066 106.137C260.086 105.941 260.096 105.736 260.096 105.521C260.096 105.307 260.096 105.111 260.096 104.936C260.096 104.74 260.096 104.604 260.096 104.525C260.076 104.174 260.066 103.725 260.066 103.178C260.066 102.611 260.018 102.035 259.92 101.449C259.842 100.863 259.666 100.307 259.393 99.7793C259.139 99.252 258.719 98.8516 258.133 98.5781C257.723 98.5781 257.342 98.6465 256.99 98.7832C256.639 98.9199 256.287 99.0664 255.936 99.2227C255.584 99.3789 255.232 99.5254 254.881 99.6621C254.529 99.7793 254.148 99.8379 253.738 99.8379C253.738 99.3496 253.885 98.9492 254.178 98.6367C254.49 98.3047 254.861 98.0508 255.291 97.875C255.721 97.6992 256.17 97.582 256.639 97.5234C257.107 97.4648 257.518 97.4355 257.869 97.4355C258.221 97.4941 258.543 97.5625 258.836 97.6406C259.148 97.7188 259.432 97.875 259.686 98.1094C259.959 98.3438 260.203 98.7051 260.418 99.1934C260.652 99.6621 260.848 100.326 261.004 101.186C261.18 102.045 261.326 103.139 261.443 104.467C261.58 105.775 261.688 107.387 261.766 109.301C261.805 109.555 261.717 109.779 261.502 109.975C261.307 110.15 261.033 110.307 260.682 110.443C260.33 110.561 259.93 110.668 259.48 110.766C259.051 110.844 258.611 110.902 258.162 110.941C257.713 110.98 257.283 111.01 256.873 111.029C256.463 111.049 256.121 111.059 255.848 111.059C255.496 111.059 255.135 111 254.764 110.883C254.412 110.766 254.08 110.6 253.768 110.385C253.475 110.15 253.23 109.877 253.035 109.564C252.859 109.232 252.771 108.871 252.771 108.48ZM256.58 106.43C255.604 106.703 254.92 107.035 254.529 107.426C254.139 107.797 253.963 108.158 254.002 108.51C254.061 108.861 254.295 109.184 254.705 109.477C255.115 109.75 255.613 109.936 256.199 110.033C256.785 110.111 257.42 110.062 258.104 109.887C258.787 109.691 259.441 109.32 260.066 108.773C259.832 108.207 259.598 107.777 259.363 107.484C259.129 107.172 258.875 106.938 258.602 106.781C258.328 106.625 258.025 106.527 257.693 106.488C257.361 106.449 256.99 106.43 256.58 106.43ZM267.039 120.229C267.039 120.033 267.059 119.867 267.098 119.73C267.117 119.594 267.176 119.516 267.273 119.496C267.352 119.477 267.469 119.516 267.625 119.613C267.781 119.73 267.977 119.945 268.211 120.258C268.211 120.512 268.396 120.717 268.768 120.873C269.119 121.029 269.529 121.146 269.998 121.225C270.467 121.322 270.945 121.381 271.434 121.4C271.902 121.42 272.244 121.43 272.459 121.43C273.416 121.43 274.227 121.254 274.891 120.902C275.574 120.57 276.131 120.111 276.561 119.525C277.01 118.959 277.332 118.285 277.527 117.504C277.742 116.742 277.85 115.941 277.85 115.102C277.85 113.891 277.762 112.719 277.586 111.586C277.43 110.473 277.215 109.359 276.941 108.246C276.668 107.113 276.355 105.971 276.004 104.818C275.652 103.646 275.301 102.416 274.949 101.127C274.812 100.541 274.773 100.102 274.832 99.8086C274.891 99.5156 274.988 99.3301 275.125 99.252C275.281 99.1543 275.447 99.1348 275.623 99.1934C275.818 99.252 275.975 99.3398 276.092 99.457C276.424 100.688 276.756 101.957 277.088 103.266C277.42 104.555 277.732 105.873 278.025 107.221C278.318 108.568 278.553 109.926 278.729 111.293C278.904 112.66 278.992 114.008 278.992 115.336C278.992 116.254 278.875 117.143 278.641 118.002C278.406 118.881 278.035 119.652 277.527 120.316C277.039 120.98 276.424 121.518 275.682 121.928C274.939 122.338 274.051 122.543 273.016 122.543C272.547 122.543 271.971 122.533 271.287 122.514C270.604 122.494 269.949 122.406 269.324 122.25C268.68 122.113 268.143 121.889 267.713 121.576C267.264 121.283 267.039 120.834 267.039 120.229ZM273.631 92.0449C273.885 92.0449 274.158 92.084 274.451 92.1621C274.744 92.2207 275.018 92.3281 275.271 92.4844C275.525 92.6211 275.73 92.8066 275.887 93.041C276.062 93.2559 276.15 93.5195 276.15 93.832C276.15 94.5938 275.75 94.9746 274.949 94.9746C274.578 94.9746 274.295 94.877 274.1 94.6816C273.904 94.4863 273.768 94.2422 273.689 93.9492C273.631 93.6562 273.602 93.3438 273.602 93.0117C273.621 92.6602 273.631 92.3379 273.631 92.0449ZM274.949 93.6855C274.891 93.6855 274.861 93.7344 274.861 93.832C274.861 93.9102 274.891 93.9492 274.949 93.9492C275.027 93.9492 275.066 93.9102 275.066 93.832C275.066 93.7344 275.027 93.6855 274.949 93.6855ZM280.486 105.639C280.486 105.189 280.525 104.672 280.604 104.086C280.682 103.48 280.809 102.875 280.984 102.27C281.16 101.664 281.375 101.068 281.629 100.482C281.902 99.8965 282.225 99.3789 282.596 98.9297C282.967 98.4609 283.396 98.0898 283.885 97.8164C284.373 97.5234 284.92 97.377 285.525 97.377C286.15 97.377 286.727 97.5918 287.254 98.0215C287.801 98.4512 288.26 99.0078 288.631 99.6914C289.021 100.375 289.314 101.137 289.51 101.977C289.705 102.816 289.783 103.637 289.744 104.438C289.744 105.609 289.52 106.654 289.07 107.572C288.621 108.49 288.045 109.232 287.342 109.799C286.658 110.365 285.916 110.746 285.115 110.941C284.334 111.137 283.592 111.088 282.889 110.795C282.205 110.482 281.629 109.906 281.16 109.066C280.711 108.227 280.486 107.084 280.486 105.639ZM281.57 105.756C281.629 106.947 281.834 107.865 282.186 108.51C282.537 109.154 282.957 109.584 283.445 109.799C283.953 109.994 284.5 109.994 285.086 109.799C285.672 109.604 286.219 109.262 286.727 108.773C287.234 108.266 287.664 107.641 288.016 106.898C288.387 106.137 288.592 105.287 288.631 104.35C288.67 103.646 288.611 102.963 288.455 102.299C288.318 101.635 288.113 101.049 287.84 100.541C287.586 100.014 287.264 99.6035 286.873 99.3105C286.502 98.998 286.072 98.8418 285.584 98.8418C285.115 98.8418 284.695 98.959 284.324 99.1934C283.953 99.4277 283.611 99.75 283.299 100.16C283.006 100.551 282.752 101 282.537 101.508C282.322 102.016 282.137 102.523 281.98 103.031C281.844 103.539 281.736 104.037 281.658 104.525C281.6 104.994 281.57 105.404 281.57 105.756ZM292.293 110.209C292.273 109.799 292.225 109.174 292.146 108.334C292.088 107.475 292.02 106.518 291.941 105.463C291.863 104.389 291.785 103.256 291.707 102.064C291.629 100.873 291.551 99.75 291.473 98.6953C291.414 97.6211 291.355 96.6641 291.297 95.8242C291.238 94.9648 291.199 94.3301 291.18 93.9199C291.16 93.7441 291.141 93.4414 291.121 93.0117C291.121 92.5625 291.111 92.0938 291.092 91.6055C291.072 91.0977 291.053 90.6289 291.033 90.1992C291.033 89.75 291.033 89.4375 291.033 89.2617C291.307 89.2617 291.551 89.3203 291.766 89.4375C291.98 89.5352 292.156 89.7109 292.293 89.9648C292.332 90.375 292.371 90.9609 292.41 91.7227C292.469 92.4648 292.527 93.3242 292.586 94.3008C292.645 95.2773 292.703 96.3223 292.762 97.4355C292.84 98.5488 292.908 99.6523 292.967 100.746C293.025 100.648 293.084 100.561 293.143 100.482C293.201 100.404 293.24 100.355 293.26 100.336C293.475 100.102 293.729 99.8281 294.021 99.5156C294.314 99.2031 294.617 98.8809 294.93 98.5488C295.262 98.2168 295.584 97.8945 295.896 97.582C296.229 97.25 296.521 96.957 296.775 96.7031C297.049 96.4297 297.273 96.2148 297.449 96.0586C297.625 95.9023 297.732 95.8242 297.771 95.8242L298.885 96.3809C298.553 96.6738 298.172 97.0156 297.742 97.4062C297.312 97.7969 296.893 98.2168 296.482 98.666C296.072 99.0957 295.672 99.5547 295.281 100.043C294.91 100.512 294.607 100.98 294.373 101.449C294.373 101.469 294.363 101.518 294.344 101.596C294.344 101.654 294.344 101.703 294.344 101.742C294.344 101.762 294.344 101.811 294.344 101.889C294.363 101.947 294.373 101.986 294.373 102.006L301.141 109.887C301.141 109.906 301.141 109.945 301.141 110.004C301.16 110.062 301.17 110.111 301.17 110.15C301.17 110.521 300.975 110.805 300.584 111L293.26 102.562C293.24 102.543 293.211 102.514 293.172 102.475C293.152 102.416 293.123 102.357 293.084 102.299L293.406 107.982C293.406 108.08 293.406 108.266 293.406 108.539C293.426 108.812 293.436 109.115 293.436 109.447C293.455 109.76 293.465 110.062 293.465 110.355C293.484 110.629 293.494 110.814 293.494 110.912C293.24 110.912 293.006 110.863 292.791 110.766C292.576 110.648 292.41 110.463 292.293 110.209ZM302.752 104.115C302.752 103.529 302.879 102.885 303.133 102.182C303.387 101.459 303.729 100.795 304.158 100.189C304.607 99.5645 305.105 99.0469 305.652 98.6367C306.219 98.207 306.805 97.9922 307.41 97.9922C307.742 97.9922 308.064 98.0605 308.377 98.1973C308.709 98.334 309.021 98.5195 309.314 98.7539C309.627 98.9688 309.9 99.2227 310.135 99.5156C310.389 99.7891 310.584 100.082 310.721 100.395C310.857 100.707 310.926 101.01 310.926 101.303C310.945 101.596 310.867 101.85 310.691 102.064L304.51 103.207C304.432 103.227 304.363 103.324 304.305 103.5C304.246 103.656 304.197 103.861 304.158 104.115C304.119 104.369 304.08 104.652 304.041 104.965C304.021 105.258 304.002 105.551 303.982 105.844C303.963 106.117 303.953 106.371 303.953 106.605C303.953 106.82 303.953 106.986 303.953 107.104C303.953 107.65 304.08 108.1 304.334 108.451C304.607 108.783 304.949 109.037 305.359 109.213C305.77 109.389 306.229 109.506 306.736 109.564C307.264 109.623 307.781 109.652 308.289 109.652C308.797 109.652 309.275 109.633 309.725 109.594C310.174 109.555 310.545 109.535 310.838 109.535C310.838 109.613 310.809 109.701 310.75 109.799C310.691 109.896 310.623 109.994 310.545 110.092C310.467 110.17 310.389 110.248 310.311 110.326C310.232 110.385 310.184 110.424 310.164 110.443C310.008 110.482 309.764 110.541 309.432 110.619C309.119 110.678 308.777 110.736 308.406 110.795C308.055 110.854 307.723 110.902 307.41 110.941C307.098 110.98 306.883 111 306.766 111C306.16 111.117 305.633 111.107 305.184 110.971C304.734 110.834 304.354 110.6 304.041 110.268C303.729 109.936 303.475 109.535 303.279 109.066C303.084 108.578 302.938 108.061 302.84 107.514C302.742 106.967 302.684 106.4 302.664 105.814C302.664 105.229 302.693 104.662 302.752 104.115ZM307 99.1055C306.824 99.1055 306.59 99.2031 306.297 99.3984C306.023 99.5742 305.76 99.8086 305.506 100.102C305.271 100.375 305.066 100.678 304.891 101.01C304.734 101.322 304.686 101.596 304.744 101.83C305.252 101.889 305.779 101.879 306.326 101.801C306.873 101.723 307.371 101.605 307.82 101.449C308.27 101.273 308.641 101.078 308.934 100.863C309.227 100.629 309.363 100.395 309.344 100.16C309.344 99.9258 309.158 99.7207 308.787 99.5449C308.436 99.3496 307.84 99.2031 307 99.1055ZM327.596 110.15C327.596 109.936 327.635 109.77 327.713 109.652C327.791 109.535 327.938 109.418 328.152 109.301C328.387 109.418 328.543 109.535 328.621 109.652C328.719 109.77 328.768 109.936 328.768 110.15C328.768 110.365 328.719 110.531 328.621 110.648C328.543 110.766 328.387 110.883 328.152 111C327.938 110.883 327.791 110.766 327.713 110.648C327.635 110.531 327.596 110.365 327.596 110.15ZM326.453 102.27C326.453 101.84 326.561 101.479 326.775 101.186C327.01 100.893 327.293 100.639 327.625 100.424C327.977 100.189 328.348 99.9746 328.738 99.7793C329.148 99.584 329.52 99.3789 329.852 99.1641C330.184 98.9297 330.467 98.6562 330.701 98.3438C330.936 98.0312 331.053 97.6504 331.053 97.2012C331.053 96.8887 330.945 96.6348 330.73 96.4395C330.516 96.2441 330.252 96.0977 329.939 96C329.646 95.9023 329.334 95.8438 329.002 95.8242C328.67 95.7852 328.396 95.7656 328.182 95.7656C327.771 95.7656 327.381 95.8535 327.01 96.0293C326.639 96.2051 326.277 96.4102 325.926 96.6445C325.574 96.8789 325.232 97.084 324.9 97.2598C324.588 97.4355 324.275 97.5234 323.963 97.5234C323.748 97.5234 323.582 97.4844 323.465 97.4062C323.348 97.3086 323.23 97.1523 323.113 96.9375C323.367 96.5469 323.67 96.2148 324.021 95.9414C324.373 95.6484 324.754 95.4043 325.164 95.209C325.574 95.0137 326.004 94.8672 326.453 94.7695C326.902 94.6719 327.352 94.623 327.801 94.623C328.152 94.623 328.572 94.6719 329.061 94.7695C329.549 94.8477 330.018 94.9941 330.467 95.209C330.936 95.4043 331.326 95.668 331.639 96C331.971 96.3125 332.137 96.7129 332.137 97.2012C332.137 97.709 331.971 98.2363 331.639 98.7832C331.307 99.3301 330.916 99.8477 330.467 100.336C330.037 100.824 329.578 101.264 329.09 101.654C328.602 102.045 328.201 102.348 327.889 102.562V105.199C327.537 105.199 327.264 105.092 327.068 104.877C326.873 104.662 326.727 104.408 326.629 104.115C326.551 103.803 326.502 103.48 326.482 103.148C326.463 102.797 326.453 102.504 326.453 102.27Z" fill="black"/>
<path d="M95.5566 142.99C95.5566 142.268 95.6738 141.467 95.9082 140.588C96.1426 139.709 96.4844 138.898 96.9336 138.156C97.3828 137.395 97.9395 136.76 98.6035 136.252C99.2676 135.744 100.039 135.49 100.918 135.49C101.367 135.432 101.729 135.48 102.002 135.637C102.275 135.773 102.48 135.998 102.617 136.311C102.773 136.623 102.871 136.984 102.91 137.395C102.969 137.785 102.998 138.195 102.998 138.625C103.018 139.035 103.018 139.426 102.998 139.797C102.998 140.148 103.018 140.441 103.057 140.676H102.324C102.305 140.559 102.266 140.285 102.207 139.855C102.168 139.406 102.09 138.947 101.973 138.479C101.855 138.01 101.689 137.59 101.475 137.219C101.279 136.848 100.996 136.662 100.625 136.662C100.078 136.662 99.5605 136.877 99.0723 137.307C98.6035 137.736 98.1934 138.254 97.8418 138.859C97.4902 139.465 97.207 140.09 96.9922 140.734C96.7773 141.379 96.6699 141.916 96.6699 142.346C96.6895 142.834 96.7578 143.371 96.875 143.957C96.9922 144.523 97.1777 145.041 97.4316 145.51C97.7051 145.979 98.0566 146.359 98.4863 146.652C98.916 146.945 99.4434 147.033 100.068 146.916C100.537 146.916 100.986 146.818 101.416 146.623C101.846 146.428 102.266 146.223 102.676 146.008C103.086 145.793 103.496 145.588 103.906 145.393C104.336 145.197 104.785 145.1 105.254 145.1C105.254 145.607 105.068 146.057 104.697 146.447C104.326 146.818 103.867 147.121 103.32 147.355C102.793 147.59 102.227 147.766 101.621 147.883C101.035 148 100.537 148.059 100.127 148.059C99.4629 148.059 98.8477 147.922 98.2812 147.648C97.7344 147.375 97.2559 147.014 96.8457 146.564C96.4355 146.096 96.1133 145.559 95.8789 144.953C95.6641 144.328 95.5566 143.674 95.5566 142.99ZM107.275 125.236C107.549 125.275 107.783 125.354 107.979 125.471C108.193 125.568 108.359 125.754 108.477 126.027C108.477 126.398 108.486 126.916 108.506 127.58C108.545 128.225 108.574 128.977 108.594 129.836C108.633 130.695 108.672 131.623 108.711 132.619C108.75 133.615 108.789 134.621 108.828 135.637C108.867 136.652 108.896 137.658 108.916 138.654C108.955 139.65 108.984 140.578 109.004 141.438C109.043 142.297 109.072 143.059 109.092 143.723C109.111 144.387 109.131 144.895 109.15 145.246C109.15 145.285 109.141 145.354 109.121 145.451C109.121 145.549 109.111 145.666 109.092 145.803C109.092 145.939 109.082 146.076 109.062 146.213C109.062 146.33 109.062 146.418 109.062 146.477C109.043 146.594 109.033 146.74 109.033 146.916C109.033 147.072 109.014 147.229 108.975 147.385C108.936 147.541 108.867 147.688 108.77 147.824C108.691 147.941 108.555 148.01 108.359 148.029L107.861 147.414C107.842 147.395 107.812 147.033 107.773 146.33C107.754 145.607 107.715 144.68 107.656 143.547C107.617 142.395 107.578 141.105 107.539 139.68C107.5 138.234 107.451 136.779 107.393 135.314C107.354 133.85 107.314 132.443 107.275 131.096C107.236 129.748 107.207 128.586 107.188 127.609C107.188 127.531 107.188 127.375 107.188 127.141C107.207 126.906 107.217 126.672 107.217 126.438C107.236 126.184 107.246 125.949 107.246 125.734C107.266 125.5 107.275 125.334 107.275 125.236ZM112.197 136.633C112.432 136.633 112.627 136.623 112.783 136.604C112.959 136.584 113.105 136.682 113.223 136.896C113.281 137.775 113.35 138.674 113.428 139.592C113.506 140.49 113.584 141.398 113.662 142.316C113.74 143.234 113.789 144.162 113.809 145.1C113.848 146.018 113.857 146.916 113.838 147.795C113.838 147.912 113.809 147.98 113.75 148C113.691 148.039 113.604 148.049 113.486 148.029C113.389 148.029 113.262 148.02 113.105 148C112.969 148 112.812 148.02 112.637 148.059L112.197 136.633ZM110.498 131.389C110.498 131.252 110.508 131.105 110.527 130.949C110.547 130.773 110.586 130.617 110.645 130.48C110.723 130.344 110.811 130.227 110.908 130.129C111.025 130.031 111.162 129.982 111.318 129.982C111.553 129.982 111.787 129.992 112.021 130.012C112.256 130.031 112.48 130.08 112.695 130.158C112.91 130.217 113.086 130.324 113.223 130.48C113.359 130.617 113.428 130.822 113.428 131.096C113.428 131.564 113.252 131.984 112.9 132.355C112.549 132.707 112.119 132.883 111.611 132.883C111.221 132.883 110.938 132.736 110.762 132.443C110.586 132.131 110.498 131.779 110.498 131.389ZM112.197 131.535C112.139 131.535 112.109 131.584 112.109 131.682C112.109 131.779 112.139 131.828 112.197 131.828C112.275 131.828 112.314 131.779 112.314 131.682C112.314 131.584 112.275 131.535 112.197 131.535ZM115.039 142.99C115.039 142.268 115.156 141.467 115.391 140.588C115.625 139.709 115.967 138.898 116.416 138.156C116.865 137.395 117.422 136.76 118.086 136.252C118.75 135.744 119.521 135.49 120.4 135.49C120.85 135.432 121.211 135.48 121.484 135.637C121.758 135.773 121.963 135.998 122.1 136.311C122.256 136.623 122.354 136.984 122.393 137.395C122.451 137.785 122.48 138.195 122.48 138.625C122.5 139.035 122.5 139.426 122.48 139.797C122.48 140.148 122.5 140.441 122.539 140.676H121.807C121.787 140.559 121.748 140.285 121.689 139.855C121.65 139.406 121.572 138.947 121.455 138.479C121.338 138.01 121.172 137.59 120.957 137.219C120.762 136.848 120.479 136.662 120.107 136.662C119.561 136.662 119.043 136.877 118.555 137.307C118.086 137.736 117.676 138.254 117.324 138.859C116.973 139.465 116.689 140.09 116.475 140.734C116.26 141.379 116.152 141.916 116.152 142.346C116.172 142.834 116.24 143.371 116.357 143.957C116.475 144.523 116.66 145.041 116.914 145.51C117.188 145.979 117.539 146.359 117.969 146.652C118.398 146.945 118.926 147.033 119.551 146.916C120.02 146.916 120.469 146.818 120.898 146.623C121.328 146.428 121.748 146.223 122.158 146.008C122.568 145.793 122.979 145.588 123.389 145.393C123.818 145.197 124.268 145.1 124.736 145.1C124.736 145.607 124.551 146.057 124.18 146.447C123.809 146.818 123.35 147.121 122.803 147.355C122.275 147.59 121.709 147.766 121.104 147.883C120.518 148 120.02 148.059 119.609 148.059C118.945 148.059 118.33 147.922 117.764 147.648C117.217 147.375 116.738 147.014 116.328 146.564C115.918 146.096 115.596 145.559 115.361 144.953C115.146 144.328 115.039 143.674 115.039 142.99ZM127.109 147.209C127.09 146.799 127.041 146.174 126.963 145.334C126.904 144.475 126.836 143.518 126.758 142.463C126.68 141.389 126.602 140.256 126.523 139.064C126.445 137.873 126.367 136.75 126.289 135.695C126.23 134.621 126.172 133.664 126.113 132.824C126.055 131.965 126.016 131.33 125.996 130.92C125.977 130.744 125.957 130.441 125.938 130.012C125.938 129.562 125.928 129.094 125.908 128.605C125.889 128.098 125.869 127.629 125.85 127.199C125.85 126.75 125.85 126.438 125.85 126.262C126.123 126.262 126.367 126.32 126.582 126.438C126.797 126.535 126.973 126.711 127.109 126.965C127.148 127.375 127.188 127.961 127.227 128.723C127.285 129.465 127.344 130.324 127.402 131.301C127.461 132.277 127.52 133.322 127.578 134.436C127.656 135.549 127.725 136.652 127.783 137.746C127.842 137.648 127.9 137.561 127.959 137.482C128.018 137.404 128.057 137.355 128.076 137.336C128.291 137.102 128.545 136.828 128.838 136.516C129.131 136.203 129.434 135.881 129.746 135.549C130.078 135.217 130.4 134.895 130.713 134.582C131.045 134.25 131.338 133.957 131.592 133.703C131.865 133.43 132.09 133.215 132.266 133.059C132.441 132.902 132.549 132.824 132.588 132.824L133.701 133.381C133.369 133.674 132.988 134.016 132.559 134.406C132.129 134.797 131.709 135.217 131.299 135.666C130.889 136.096 130.488 136.555 130.098 137.043C129.727 137.512 129.424 137.98 129.189 138.449C129.189 138.469 129.18 138.518 129.16 138.596C129.16 138.654 129.16 138.703 129.16 138.742C129.16 138.762 129.16 138.811 129.16 138.889C129.18 138.947 129.189 138.986 129.189 139.006L135.957 146.887C135.957 146.906 135.957 146.945 135.957 147.004C135.977 147.062 135.986 147.111 135.986 147.15C135.986 147.521 135.791 147.805 135.4 148L128.076 139.562C128.057 139.543 128.027 139.514 127.988 139.475C127.969 139.416 127.939 139.357 127.9 139.299L128.223 144.982C128.223 145.08 128.223 145.266 128.223 145.539C128.242 145.812 128.252 146.115 128.252 146.447C128.271 146.76 128.281 147.062 128.281 147.355C128.301 147.629 128.311 147.814 128.311 147.912C128.057 147.912 127.822 147.863 127.607 147.766C127.393 147.648 127.227 147.463 127.109 147.209ZM148.76 142.639C148.76 142.189 148.799 141.672 148.877 141.086C148.955 140.48 149.082 139.875 149.258 139.27C149.434 138.664 149.648 138.068 149.902 137.482C150.176 136.896 150.498 136.379 150.869 135.93C151.24 135.461 151.67 135.09 152.158 134.816C152.646 134.523 153.193 134.377 153.799 134.377C154.424 134.377 155 134.592 155.527 135.021C156.074 135.451 156.533 136.008 156.904 136.691C157.295 137.375 157.588 138.137 157.783 138.977C157.979 139.816 158.057 140.637 158.018 141.438C158.018 142.609 157.793 143.654 157.344 144.572C156.895 145.49 156.318 146.232 155.615 146.799C154.932 147.365 154.189 147.746 153.389 147.941C152.607 148.137 151.865 148.088 151.162 147.795C150.479 147.482 149.902 146.906 149.434 146.066C148.984 145.227 148.76 144.084 148.76 142.639ZM149.844 142.756C149.902 143.947 150.107 144.865 150.459 145.51C150.811 146.154 151.23 146.584 151.719 146.799C152.227 146.994 152.773 146.994 153.359 146.799C153.945 146.604 154.492 146.262 155 145.773C155.508 145.266 155.938 144.641 156.289 143.898C156.66 143.137 156.865 142.287 156.904 141.35C156.943 140.646 156.885 139.963 156.729 139.299C156.592 138.635 156.387 138.049 156.113 137.541C155.859 137.014 155.537 136.604 155.146 136.311C154.775 135.998 154.346 135.842 153.857 135.842C153.389 135.842 152.969 135.959 152.598 136.193C152.227 136.428 151.885 136.75 151.572 137.16C151.279 137.551 151.025 138 150.811 138.508C150.596 139.016 150.41 139.523 150.254 140.031C150.117 140.539 150.01 141.037 149.932 141.525C149.873 141.994 149.844 142.404 149.844 142.756ZM159.922 147.854C159.883 147.541 159.844 147.092 159.805 146.506C159.785 145.9 159.756 145.227 159.717 144.484C159.697 143.723 159.678 142.932 159.658 142.111C159.639 141.291 159.619 140.51 159.6 139.768C159.58 139.025 159.551 138.361 159.512 137.775C159.492 137.17 159.453 136.711 159.395 136.398C159.395 136.379 159.385 136.33 159.365 136.252C159.365 136.174 159.355 136.086 159.336 135.988C159.336 135.891 159.336 135.812 159.336 135.754C159.336 135.676 159.336 135.617 159.336 135.578C159.629 135.344 159.873 135.266 160.068 135.344C160.283 135.422 160.459 135.598 160.596 135.871C160.732 136.125 160.83 136.447 160.889 136.838C160.947 137.229 160.986 137.619 161.006 138.01C161.045 138.4 161.064 138.762 161.064 139.094C161.064 139.406 161.064 139.631 161.064 139.768C161.104 139.436 161.162 139.045 161.24 138.596C161.318 138.146 161.436 137.688 161.592 137.219C161.748 136.75 161.934 136.291 162.148 135.842C162.383 135.373 162.666 134.963 162.998 134.611C163.33 134.26 163.701 133.986 164.111 133.791C164.541 133.596 165.029 133.518 165.576 133.557C166.436 133.596 167.139 133.83 167.686 134.26C168.252 134.689 168.691 135.266 169.004 135.988C169.336 136.711 169.57 137.541 169.707 138.479C169.863 139.416 169.961 140.412 170 141.467C170.059 142.521 170.078 143.596 170.059 144.689C170.039 145.764 170.029 146.799 170.029 147.795C169.854 147.834 169.678 147.902 169.502 148C169.326 148.078 169.18 148.107 169.062 148.088C168.945 148.088 168.857 148.01 168.799 147.854C168.76 147.678 168.779 147.346 168.857 146.857C168.877 146.506 168.906 145.969 168.945 145.246C169.004 144.504 169.023 143.684 169.004 142.785C169.004 141.887 168.955 140.959 168.857 140.002C168.76 139.045 168.574 138.176 168.301 137.395C168.047 136.594 167.676 135.949 167.188 135.461C166.699 134.953 166.064 134.699 165.283 134.699C164.482 135.031 163.809 135.656 163.262 136.574C162.734 137.492 162.305 138.566 161.973 139.797C161.66 141.027 161.426 142.365 161.27 143.811C161.133 145.236 161.055 146.633 161.035 148C160.996 147.98 160.918 147.971 160.801 147.971C160.703 147.971 160.586 147.971 160.449 147.971C160.332 147.951 160.215 147.932 160.098 147.912C160 147.893 159.941 147.873 159.922 147.854ZM182.129 143.752C182.129 143.225 182.217 142.648 182.393 142.023C182.568 141.379 182.822 140.793 183.154 140.266C183.486 139.719 183.887 139.27 184.355 138.918C184.824 138.566 185.371 138.391 185.996 138.391C186.465 138.391 186.875 138.439 187.227 138.537C187.598 138.615 187.939 138.762 188.252 138.977C188.584 139.172 188.887 139.416 189.16 139.709C189.453 139.982 189.756 140.305 190.068 140.676L189.893 125.646C190.42 125.451 190.742 125.373 190.859 125.412C190.996 125.451 191.064 125.617 191.064 125.91C191.064 125.949 191.055 126.008 191.035 126.086C191.035 126.164 191.035 126.213 191.035 126.232C191.016 126.604 190.996 127.131 190.977 127.814C190.977 128.498 190.977 129.289 190.977 130.188C190.996 131.086 191.016 132.062 191.035 133.117C191.055 134.152 191.074 135.207 191.094 136.281C191.113 137.336 191.133 138.391 191.152 139.445C191.191 140.48 191.211 141.447 191.211 142.346C191.23 143.244 191.23 144.045 191.211 144.748C191.211 145.432 191.201 145.949 191.182 146.301C190.967 146.75 190.664 147.092 190.273 147.326C189.902 147.561 189.492 147.736 189.043 147.854C188.613 147.951 188.164 148.01 187.695 148.029C187.227 148.049 186.787 148.059 186.377 148.059C185.068 148.059 184.033 147.678 183.271 146.916C182.51 146.135 182.129 145.08 182.129 143.752ZM183.301 142.961C183.301 143.449 183.34 143.938 183.418 144.426C183.496 144.895 183.633 145.314 183.828 145.686C184.023 146.057 184.297 146.359 184.648 146.594C185 146.809 185.449 146.916 185.996 146.916C186.328 146.916 186.729 146.916 187.197 146.916C187.666 146.916 188.115 146.867 188.545 146.77C188.975 146.652 189.336 146.477 189.629 146.242C189.922 146.008 190.068 145.676 190.068 145.246C190.068 144.738 189.99 144.162 189.834 143.518C189.697 142.854 189.473 142.229 189.16 141.643C188.867 141.037 188.486 140.529 188.018 140.119C187.568 139.689 187.031 139.475 186.406 139.475C185.996 139.475 185.605 139.582 185.234 139.797C184.863 140.012 184.531 140.285 184.238 140.617C183.965 140.949 183.74 141.32 183.564 141.73C183.389 142.141 183.301 142.551 183.301 142.961ZM193.789 136.633C194.023 136.633 194.219 136.623 194.375 136.604C194.551 136.584 194.697 136.682 194.814 136.896C194.873 137.775 194.941 138.674 195.02 139.592C195.098 140.49 195.176 141.398 195.254 142.316C195.332 143.234 195.381 144.162 195.4 145.1C195.439 146.018 195.449 146.916 195.43 147.795C195.43 147.912 195.4 147.98 195.342 148C195.283 148.039 195.195 148.049 195.078 148.029C194.98 148.029 194.854 148.02 194.697 148C194.561 148 194.404 148.02 194.229 148.059L193.789 136.633ZM192.09 131.389C192.09 131.252 192.1 131.105 192.119 130.949C192.139 130.773 192.178 130.617 192.236 130.48C192.314 130.344 192.402 130.227 192.5 130.129C192.617 130.031 192.754 129.982 192.91 129.982C193.145 129.982 193.379 129.992 193.613 130.012C193.848 130.031 194.072 130.08 194.287 130.158C194.502 130.217 194.678 130.324 194.814 130.48C194.951 130.617 195.02 130.822 195.02 131.096C195.02 131.564 194.844 131.984 194.492 132.355C194.141 132.707 193.711 132.883 193.203 132.883C192.812 132.883 192.529 132.736 192.354 132.443C192.178 132.131 192.09 131.779 192.09 131.389ZM193.789 131.535C193.73 131.535 193.701 131.584 193.701 131.682C193.701 131.779 193.73 131.828 193.789 131.828C193.867 131.828 193.906 131.779 193.906 131.682C193.906 131.584 193.867 131.535 193.789 131.535ZM198.184 145.627C198.535 145.627 198.857 145.695 199.15 145.832C199.463 145.969 199.766 146.125 200.059 146.301C200.352 146.457 200.645 146.604 200.938 146.74C201.25 146.857 201.582 146.916 201.934 146.916C202.344 146.916 202.764 146.848 203.193 146.711C203.643 146.555 204.053 146.35 204.424 146.096C204.795 145.822 205.098 145.5 205.332 145.129C205.566 144.738 205.684 144.318 205.684 143.869C205.703 143.732 205.703 143.566 205.684 143.371C205.684 143.176 205.625 142.98 205.508 142.785C205.391 142.57 205.195 142.375 204.922 142.199C204.648 142.004 204.248 141.857 203.721 141.76C203.213 141.662 202.568 141.613 201.787 141.613C201.006 141.594 200.039 141.662 198.887 141.818C198.594 141.818 198.311 141.74 198.037 141.584C197.764 141.408 197.52 141.203 197.305 140.969C197.09 140.715 196.914 140.451 196.777 140.178C196.641 139.885 196.572 139.611 196.572 139.357C196.572 138.596 196.729 137.98 197.041 137.512C197.373 137.023 197.793 136.643 198.301 136.369C198.809 136.076 199.375 135.871 200 135.754C200.625 135.637 201.26 135.578 201.904 135.578C202.197 135.578 202.529 135.598 202.9 135.637C203.291 135.656 203.643 135.734 203.955 135.871C204.287 135.988 204.561 136.184 204.775 136.457C205.01 136.73 205.127 137.111 205.127 137.6C205.088 137.932 205.029 138.137 204.951 138.215C204.893 138.273 204.795 138.254 204.658 138.156C204.541 138.039 204.395 137.883 204.219 137.688C204.043 137.492 203.828 137.307 203.574 137.131C203.34 136.936 203.047 136.789 202.695 136.691C202.363 136.594 201.982 136.594 201.553 136.691C201.104 136.691 200.654 136.74 200.205 136.838C199.756 136.916 199.346 137.062 198.975 137.277C198.623 137.492 198.33 137.785 198.096 138.156C197.881 138.527 197.773 138.996 197.773 139.562C197.773 139.855 197.9 140.061 198.154 140.178C198.428 140.275 198.779 140.324 199.209 140.324C199.658 140.324 200.156 140.314 200.703 140.295C201.27 140.256 201.846 140.236 202.432 140.236C203.018 140.236 203.584 140.285 204.131 140.383C204.678 140.461 205.156 140.637 205.566 140.91C205.996 141.164 206.328 141.535 206.562 142.023C206.797 142.512 206.885 143.146 206.826 143.928C206.826 144.494 206.66 145.031 206.328 145.539C206.016 146.047 205.605 146.496 205.098 146.887C204.609 147.258 204.062 147.551 203.457 147.766C202.852 147.98 202.266 148.059 201.699 148C201.465 147.98 201.143 147.922 200.732 147.824C200.342 147.707 199.951 147.551 199.561 147.355C199.189 147.16 198.867 146.926 198.594 146.652C198.32 146.359 198.184 146.018 198.184 145.627ZM208.174 142.99C208.174 142.268 208.291 141.467 208.525 140.588C208.76 139.709 209.102 138.898 209.551 138.156C210 137.395 210.557 136.76 211.221 136.252C211.885 135.744 212.656 135.49 213.535 135.49C213.984 135.432 214.346 135.48 214.619 135.637C214.893 135.773 215.098 135.998 215.234 136.311C215.391 136.623 215.488 136.984 215.527 137.395C215.586 137.785 215.615 138.195 215.615 138.625C215.635 139.035 215.635 139.426 215.615 139.797C215.615 140.148 215.635 140.441 215.674 140.676H214.941C214.922 140.559 214.883 140.285 214.824 139.855C214.785 139.406 214.707 138.947 214.59 138.479C214.473 138.01 214.307 137.59 214.092 137.219C213.896 136.848 213.613 136.662 213.242 136.662C212.695 136.662 212.178 136.877 211.689 137.307C211.221 137.736 210.811 138.254 210.459 138.859C210.107 139.465 209.824 140.09 209.609 140.734C209.395 141.379 209.287 141.916 209.287 142.346C209.307 142.834 209.375 143.371 209.492 143.957C209.609 144.523 209.795 145.041 210.049 145.51C210.322 145.979 210.674 146.359 211.104 146.652C211.533 146.945 212.061 147.033 212.686 146.916C213.154 146.916 213.604 146.818 214.033 146.623C214.463 146.428 214.883 146.223 215.293 146.008C215.703 145.793 216.113 145.588 216.523 145.393C216.953 145.197 217.402 145.1 217.871 145.1C217.871 145.607 217.686 146.057 217.314 146.447C216.943 146.818 216.484 147.121 215.938 147.355C215.41 147.59 214.844 147.766 214.238 147.883C213.652 148 213.154 148.059 212.744 148.059C212.08 148.059 211.465 147.922 210.898 147.648C210.352 147.375 209.873 147.014 209.463 146.564C209.053 146.096 208.73 145.559 208.496 144.953C208.281 144.328 208.174 143.674 208.174 142.99ZM219.307 142.639C219.307 142.189 219.346 141.672 219.424 141.086C219.502 140.48 219.629 139.875 219.805 139.27C219.98 138.664 220.195 138.068 220.449 137.482C220.723 136.896 221.045 136.379 221.416 135.93C221.787 135.461 222.217 135.09 222.705 134.816C223.193 134.523 223.74 134.377 224.346 134.377C224.971 134.377 225.547 134.592 226.074 135.021C226.621 135.451 227.08 136.008 227.451 136.691C227.842 137.375 228.135 138.137 228.33 138.977C228.525 139.816 228.604 140.637 228.564 141.438C228.564 142.609 228.34 143.654 227.891 144.572C227.441 145.49 226.865 146.232 226.162 146.799C225.479 147.365 224.736 147.746 223.936 147.941C223.154 148.137 222.412 148.088 221.709 147.795C221.025 147.482 220.449 146.906 219.98 146.066C219.531 145.227 219.307 144.084 219.307 142.639ZM220.391 142.756C220.449 143.947 220.654 144.865 221.006 145.51C221.357 146.154 221.777 146.584 222.266 146.799C222.773 146.994 223.32 146.994 223.906 146.799C224.492 146.604 225.039 146.262 225.547 145.773C226.055 145.266 226.484 144.641 226.836 143.898C227.207 143.137 227.412 142.287 227.451 141.35C227.49 140.646 227.432 139.963 227.275 139.299C227.139 138.635 226.934 138.049 226.66 137.541C226.406 137.014 226.084 136.604 225.693 136.311C225.322 135.998 224.893 135.842 224.404 135.842C223.936 135.842 223.516 135.959 223.145 136.193C222.773 136.428 222.432 136.75 222.119 137.16C221.826 137.551 221.572 138 221.357 138.508C221.143 139.016 220.957 139.523 220.801 140.031C220.664 140.539 220.557 141.037 220.479 141.525C220.42 141.994 220.391 142.404 220.391 142.756ZM229.766 135.051L230.674 134.143L237.119 145.861L239.873 134.523C240.01 134.582 240.156 134.631 240.312 134.67C240.469 134.689 240.605 134.719 240.723 134.758C240.859 134.777 240.967 134.807 241.045 134.846C241.123 134.885 241.162 134.953 241.162 135.051C240.908 136.301 240.664 137.473 240.43 138.566C240.215 139.66 239.98 140.725 239.727 141.76C239.473 142.795 239.199 143.84 238.906 144.895C238.613 145.93 238.271 147.014 237.881 148.146H236.738L229.766 135.051ZM241.895 141.115C241.895 140.529 242.021 139.885 242.275 139.182C242.529 138.459 242.871 137.795 243.301 137.189C243.75 136.564 244.248 136.047 244.795 135.637C245.361 135.207 245.947 134.992 246.553 134.992C246.885 134.992 247.207 135.061 247.52 135.197C247.852 135.334 248.164 135.52 248.457 135.754C248.77 135.969 249.043 136.223 249.277 136.516C249.531 136.789 249.727 137.082 249.863 137.395C250 137.707 250.068 138.01 250.068 138.303C250.088 138.596 250.01 138.85 249.834 139.064L243.652 140.207C243.574 140.227 243.506 140.324 243.447 140.5C243.389 140.656 243.34 140.861 243.301 141.115C243.262 141.369 243.223 141.652 243.184 141.965C243.164 142.258 243.145 142.551 243.125 142.844C243.105 143.117 243.096 143.371 243.096 143.605C243.096 143.82 243.096 143.986 243.096 144.104C243.096 144.65 243.223 145.1 243.477 145.451C243.75 145.783 244.092 146.037 244.502 146.213C244.912 146.389 245.371 146.506 245.879 146.564C246.406 146.623 246.924 146.652 247.432 146.652C247.939 146.652 248.418 146.633 248.867 146.594C249.316 146.555 249.688 146.535 249.98 146.535C249.98 146.613 249.951 146.701 249.893 146.799C249.834 146.896 249.766 146.994 249.688 147.092C249.609 147.17 249.531 147.248 249.453 147.326C249.375 147.385 249.326 147.424 249.307 147.443C249.15 147.482 248.906 147.541 248.574 147.619C248.262 147.678 247.92 147.736 247.549 147.795C247.197 147.854 246.865 147.902 246.553 147.941C246.24 147.98 246.025 148 245.908 148C245.303 148.117 244.775 148.107 244.326 147.971C243.877 147.834 243.496 147.6 243.184 147.268C242.871 146.936 242.617 146.535 242.422 146.066C242.227 145.578 242.08 145.061 241.982 144.514C241.885 143.967 241.826 143.4 241.807 142.814C241.807 142.229 241.836 141.662 241.895 141.115ZM246.143 136.105C245.967 136.105 245.732 136.203 245.439 136.398C245.166 136.574 244.902 136.809 244.648 137.102C244.414 137.375 244.209 137.678 244.033 138.01C243.877 138.322 243.828 138.596 243.887 138.83C244.395 138.889 244.922 138.879 245.469 138.801C246.016 138.723 246.514 138.605 246.963 138.449C247.412 138.273 247.783 138.078 248.076 137.863C248.369 137.629 248.506 137.395 248.486 137.16C248.486 136.926 248.301 136.721 247.93 136.545C247.578 136.35 246.982 136.203 246.143 136.105ZM251.387 136.574C251.621 136.477 251.826 136.457 252.002 136.516C252.178 136.574 252.324 136.682 252.441 136.838C252.559 136.994 252.646 137.18 252.705 137.395C252.764 137.59 252.812 137.785 252.852 137.98C253.105 137.551 253.467 137.209 253.936 136.955C254.424 136.682 254.941 136.506 255.488 136.428C256.035 136.33 256.582 136.311 257.129 136.369C257.676 136.408 258.135 136.525 258.506 136.721C258.896 136.896 259.17 137.15 259.326 137.482C259.482 137.795 259.443 138.166 259.209 138.596C258.701 138.303 258.164 138.068 257.598 137.893C257.051 137.717 256.514 137.658 255.986 137.717C255.459 137.775 254.971 137.98 254.521 138.332C254.072 138.664 253.701 139.201 253.408 139.943C253.115 140.686 252.93 141.672 252.852 142.902C252.793 144.113 252.881 145.627 253.115 147.443H252.002C252.002 147.443 251.982 147.287 251.943 146.975C251.924 146.643 251.895 146.213 251.855 145.686C251.836 145.158 251.797 144.572 251.738 143.928C251.699 143.283 251.66 142.629 251.621 141.965C251.582 141.301 251.543 140.666 251.504 140.061C251.484 139.436 251.455 138.898 251.416 138.449C251.416 138.391 251.406 138.273 251.387 138.098C251.387 137.922 251.387 137.736 251.387 137.541C251.387 137.326 251.387 137.131 251.387 136.955C251.387 136.779 251.387 136.652 251.387 136.574Z" fill="black"/>
</svg>
