<svg width="24" height="24" viewBox="0 0 24 24" fill="none" xmlns="http://www.w3.org/2000/svg">
<g clip-path="url(#clip0)">
<path d="M0 2.78787C0 1.97978 0.270278 1.31311 0.810811 0.787878C1.35134 0.262618 2.05406 0 2.91892 0C3.76835 0 4.45559 0.258569 4.98069 0.775756C5.52123 1.30909 5.79151 2.00402 5.79151 2.8606C5.79151 3.63636 5.52897 4.28281 5.00386 4.79999C4.46333 5.33332 3.7529 5.59999 2.87259 5.59999H2.84942C1.99999 5.59999 1.31275 5.33332 0.787645 4.79999C0.262541 4.26666 0 3.59595 0 2.78787ZM0.301158 24V7.80605H5.44402V24H0.301158ZM8.29344 24H13.4363V14.9576C13.4363 14.3919 13.4981 13.9555 13.6216 13.6485C13.8378 13.099 14.166 12.6343 14.6062 12.2545C15.0463 11.8747 15.5984 11.6848 16.2625 11.6848C17.9923 11.6848 18.8571 12.905 18.8571 15.3454V24H24V14.7151C24 12.3232 23.4595 10.5091 22.3784 9.27271C21.2973 8.03635 19.8687 7.41817 18.0927 7.41817C16.1004 7.41817 14.5483 8.31514 13.4363 10.1091V10.1576H13.4131L13.4363 10.1091V7.80605H8.29344C8.32432 8.32321 8.33977 9.93128 8.33977 12.6303C8.33977 15.3293 8.32432 19.1191 8.29344 24Z" fill="#A30000"/>
</g>
<defs>
<clipPath id="clip0">
<rect width="24" height="24" fill="white"/>
</clipPath>
</defs>
</svg>
