<svg width="24" height="23" viewBox="0 0 24 24" fill="none" xmlns="http://www.w3.org/2000/svg">
<path d="M22.162 5.65602C21.3985 5.99371 20.589 6.21549 19.76 6.31402C20.6337 5.79145 21.2877 4.96903 21.6 4.00002C20.78 4.48802 19.881 4.83002 18.944 5.01502C18.3146 4.3416 17.4804 3.89498 16.5709 3.7446C15.6615 3.59422 14.7279 3.74851 13.9153 4.18347C13.1026 4.61843 12.4564 5.3097 12.0771 6.14981C11.6978 6.98992 11.6067 7.9318 11.818 8.82902C10.1551 8.74567 8.52832 8.31354 7.04328 7.56068C5.55823 6.80782 4.24812 5.75107 3.19799 4.45902C2.82628 5.09747 2.63095 5.82324 2.63199 6.56202C2.63199 8.01202 3.36999 9.29302 4.49199 10.043C3.828 10.0221 3.17862 9.8428 2.59799 9.52002V9.57202C2.59819 10.5377 2.93236 11.4736 3.54384 12.2211C4.15532 12.9685 5.00647 13.4815 5.95299 13.673C5.33661 13.8401 4.6903 13.8647 4.06299 13.745C4.32986 14.5763 4.85 15.3032 5.55058 15.8241C6.25117 16.345 7.09712 16.6338 7.96999 16.65C7.10247 17.3313 6.10917 17.835 5.04687 18.1322C3.98458 18.4294 2.87412 18.5143 1.77899 18.382C3.69069 19.6115 5.91609 20.2641 8.18899 20.262C15.882 20.262 20.089 13.889 20.089 8.36202C20.089 8.18202 20.084 8.00002 20.076 7.82202C20.8949 7.23019 21.6016 6.49704 22.163 5.65702L22.162 5.65602Z" fill="#A30000"/>
</svg>
